<svg width="32" height="32" viewBox="0 0 32 32" fill="none" xmlns="http://www.w3.org/2000/svg">
<path d="M30.8867 28.3805L29.5333 23.7671L28.2163 19.277C28.216 19.276 28.2155 19.2752 28.2152 19.2741L26.433 13.1987L26.1504 12.2351C26.1502 12.2346 26.1501 12.2343 26.1499 12.2338L25.7157 10.7538C25.6711 10.6015 25.5669 10.4835 25.4365 10.4155C25.3894 10.3466 25.3382 10.2803 25.2779 10.22C24.3843 9.32659 22.5256 9.91555 20.4675 11.2495C19.5547 10.2402 19.055 8.94643 19.055 7.57571C19.055 6.11091 19.6254 4.73379 20.6613 3.69811C20.88 3.47939 20.88 3.12483 20.6613 2.90611C20.4426 2.68755 20.088 2.68755 19.8693 2.90611C17.4096 5.36595 17.3015 9.29811 19.5413 11.8898C18.4866 12.6627 17.4101 13.5954 16.4088 14.5968C16.4083 14.5973 16.4077 14.5979 16.4072 14.5984C14.4152 13.3891 12.1192 12.7683 9.72177 12.8245C9.41265 12.8315 9.16769 13.088 9.17489 13.3973C9.18209 13.7064 9.43617 13.952 9.74769 13.9442C11.84 13.8946 13.8486 14.4131 15.6091 15.4277C14.8674 16.228 14.1973 17.0386 13.6264 17.8264C11.2714 16.9365 8.50673 17.436 6.61393 19.3288C6.39521 19.5475 6.39521 19.9021 6.61393 20.1208C6.83265 20.3394 7.18721 20.3394 7.40593 20.1208C8.44177 19.085 9.81889 18.5146 11.2837 18.5146C11.8674 18.5146 12.4365 18.6066 12.9763 18.7811C12.7835 19.0842 12.6077 19.3815 12.4509 19.6709C11.227 21.9299 11.5475 22.9815 12.0318 23.4659C12.0931 23.5271 12.1598 23.5797 12.2298 23.6274C12.2979 23.7562 12.4154 23.8586 12.5662 23.9029L14.0456 24.3376L14.0459 24.3378L17.1138 25.2383L17.1144 25.2384L23.6008 27.1416L24.0382 27.2701C24.0387 27.2703 24.039 27.2703 24.0395 27.2704L30.1919 29.0757C30.2439 29.0909 30.2968 29.0984 30.3495 29.0984C30.496 29.0984 30.639 29.041 30.7454 28.9344C30.8901 28.7893 30.9443 28.577 30.8867 28.3805ZM28.4755 24.1403C27.3173 24.1151 26.3827 23.165 26.3827 22.0007C26.3827 21.2727 26.7458 20.6131 27.3264 20.2234L28.4047 23.8989L28.4755 24.1403ZM25.9114 15.4007C25.1261 16.8781 23.7507 18.6488 22.1059 20.2947C20.4632 21.9376 18.693 23.313 17.2133 24.1L14.9912 23.4477C16.7818 22.6821 18.9797 21.0109 20.9013 19.0893C22.8234 17.1672 24.4942 14.969 25.2597 13.1783L25.4784 13.9235L25.9114 15.4007ZM13.4355 20.2043C13.6045 19.8927 13.7984 19.5701 14.0126 19.2408C14.4274 19.4795 14.8139 19.7733 15.1613 20.1208C15.2707 20.2301 15.4141 20.2848 15.5573 20.2848C15.7005 20.2848 15.844 20.2301 15.9533 20.1208C16.172 19.9021 16.172 19.5475 15.9533 19.3288C15.5549 18.9304 15.1178 18.5941 14.6541 18.3191C15.2061 17.5727 15.8504 16.8045 16.5643 16.045C17.0589 16.4013 17.5298 16.7986 17.9704 17.2392C18.0798 17.3485 18.2232 17.4032 18.3664 17.4032C18.5096 17.4032 18.6531 17.3485 18.7624 17.2392C18.9811 17.0205 18.9811 16.6659 18.7624 16.4472C18.3195 16.0043 17.8493 15.6002 17.3565 15.2346C20.5021 12.1331 23.1006 10.9008 24.1075 10.9008C24.2848 10.9008 24.413 10.9391 24.4858 11.012C24.9794 11.5056 23.8822 14.5247 20.1093 18.2975C16.3368 22.0703 13.3178 23.1682 12.8238 22.6739C12.6608 22.5111 12.579 21.7853 13.4355 20.2043ZM21.5373 25.1947L22.3014 25.2248C22.4848 25.2299 22.6616 25.1482 22.772 25.0003L23.2302 24.3869L23.4381 25.1227C23.4882 25.3 23.6222 25.4413 23.7968 25.5007L24.5229 25.7474L24.0059 26.0933L21.692 25.4138L21.5373 25.1947ZM25.4058 26.504L26.088 26.0474C26.2651 25.9288 26.3597 25.7202 26.3319 25.5088C26.304 25.2975 26.1586 25.1203 25.9568 25.0517L24.4358 24.5347L23.9994 22.9901C23.9414 22.785 23.772 22.6304 23.5624 22.5917C23.3525 22.5525 23.1394 22.6365 23.0119 22.8072L22.0509 24.0939L20.4474 24.0311C20.2334 24.0239 20.035 24.136 19.9333 24.3234C19.8328 24.5085 19.8451 24.7341 19.9642 24.9074L18.687 24.5327C20.0344 23.6768 21.5143 22.4706 22.8981 21.0866C24.2829 19.7007 25.4891 18.2205 26.344 16.8746L27.0014 19.1159C25.9434 19.6714 25.2627 20.7719 25.2627 22.0007C25.2627 23.7983 26.7253 25.2608 28.5229 25.2608C28.6155 25.2608 28.708 25.2554 28.8003 25.2477L29.5234 27.7122L25.4058 26.504Z" fill="#81948B"/>
<path d="M5.00671 13.8746C3.60783 14.4896 2.34559 15.3552 1.25487 16.4475C1.03631 16.6664 1.03663 17.021 1.25535 17.2395C1.36479 17.3488 1.50783 17.4032 1.65103 17.4032C1.79439 17.4032 1.93791 17.3485 2.04735 17.2389C3.03919 16.2456 4.18655 15.4586 5.45743 14.8999C5.74063 14.7754 5.86911 14.445 5.74463 14.1618C5.62015 13.8787 5.28975 13.7501 5.00671 13.8746Z" fill="#81948B"/>
<path d="M9.32095 8.02049L10.7608 8.73105L10.9918 10.3202C11.0224 10.531 11.1702 10.7064 11.3729 10.7722C11.4297 10.7906 11.4881 10.7995 11.5459 10.7995C11.6945 10.7995 11.8398 10.7403 11.947 10.6304L13.0678 9.48049L14.6505 9.75201C14.8606 9.78753 15.0731 9.70161 15.1982 9.52913C15.3235 9.35665 15.34 9.12801 15.2409 8.93937L14.4937 7.51809L15.2409 6.09681C15.3401 5.90817 15.3237 5.67953 15.1982 5.50705C15.0729 5.33457 14.8608 5.24865 14.6505 5.28417L13.0678 5.55553L11.947 4.40577C11.7982 4.25313 11.5757 4.19809 11.3729 4.26401C11.1702 4.32993 11.0225 4.50513 10.9918 4.71601L10.7608 6.30513L9.32095 7.01569C9.12975 7.11009 9.00879 7.30481 9.00879 7.51793C9.00879 7.73105 9.12991 7.92609 9.32095 8.02049ZM11.5205 7.17953C11.6857 7.09793 11.8003 6.94033 11.8269 6.75793L11.9369 6.00033L12.4712 6.54849C12.5998 6.68049 12.7849 6.74065 12.9669 6.70961L13.7213 6.58017L13.3649 7.25761C13.2792 7.42081 13.2792 7.61569 13.3649 7.77889L13.7213 8.45633L12.9669 8.32689C12.7851 8.29585 12.5998 8.35601 12.4712 8.48801L11.9369 9.03617L11.8269 8.27873C11.8003 8.09633 11.6859 7.93873 11.5205 7.85713L10.8341 7.51841L11.5205 7.17953Z" fill="#81948B"/>
<path d="M8.49917 21.692C7.60061 21.692 6.86957 22.4231 6.86957 23.3216C6.86957 24.2202 7.60061 24.9512 8.49917 24.9512C9.39773 24.9512 10.1288 24.2202 10.1288 23.3216C10.1288 22.4231 9.39773 21.692 8.49917 21.692ZM8.49917 23.8312C8.21821 23.8312 7.98957 23.6026 7.98957 23.3216C7.98957 23.0407 8.21821 22.812 8.49917 22.812C8.78013 22.812 9.00877 23.0407 9.00877 23.3216C9.00877 23.6026 8.78013 23.8312 8.49917 23.8312Z" fill="#81948B"/>
<path d="M5.03695 10.7997C6.19679 10.7997 7.14031 9.85617 7.14031 8.69633C7.14031 7.53649 6.19679 6.59265 5.03695 6.59265C3.87711 6.59265 2.93359 7.53633 2.93359 8.69617C2.93359 9.85601 3.87711 10.7997 5.03695 10.7997ZM5.03695 7.71265C5.57919 7.71265 6.02031 8.15377 6.02031 8.69617C6.02031 9.23841 5.57919 9.67953 5.03695 9.67953C4.49471 9.67953 4.05359 9.23841 4.05359 8.69617C4.05359 8.15377 4.49471 7.71265 5.03695 7.71265Z" fill="#81948B"/>
</svg>
